<?xml version="1.0" standalone="no"?>
<!DOCTYPE svg PUBLIC "-//W3C//DTD SVG 20010904//EN"
 "http://www.w3.org/TR/2001/REC-SVG-20010904/DTD/svg10.dtd">
<svg version="1.0" xmlns="http://www.w3.org/2000/svg"
 width="225.000000pt" height="225.000000pt" viewBox="0 0 225.000000 225.000000"
 preserveAspectRatio="xMidYMid meet">

<g transform="translate(0.000000,225.000000) scale(0.100000,-0.100000)"
fill="@_colour" stroke="none">
<path d="M457 2236 c-58 -21 -103 -61 -131 -118 l-26 -52 0 -295 0 -296 64 0
c71 -1 111 -20 126 -61 6 -14 10 -115 10 -225 l0 -199 625 0 625 0 0 190 c0
208 6 236 55 258 14 7 42 12 61 12 l35 0 -3 324 -3 324 -30 44 c-35 49 -82 83
-134 98 -22 6 -263 10 -636 10 -475 -1 -608 -4 -638 -14z"/>
<path d="M162 1378 c-11 -13 -42 -68 -69 -123 l-48 -100 -3 -462 -3 -463 40 0
40 0 3 -112 3 -113 68 -3 67 -3 0 115 c0 111 1 115 23 118 l22 3 5 270 c3 180
9 277 17 290 6 11 32 40 57 65 l46 44 0 236 c0 170 -3 239 -12 248 -8 8 -50
12 -123 12 -103 0 -113 -2 -133 -22z"/>
<path d="M1832 1388 c-9 -9 -12 -78 -12 -248 l0 -236 46 -44 c25 -25 51 -54
57 -65 8 -13 14 -110 17 -290 l5 -270 23 -3 c21 -3 22 -7 22 -118 l0 -115 68
3 67 3 3 113 3 112 40 0 40 0 -3 463 -3 462 -48 100 c-71 147 -68 145 -202
145 -73 0 -115 -4 -123 -12z m355 -335 c-4 -38 -7 -80 -7 -95 0 -27 -2 -28
-50 -28 -27 0 -50 5 -50 10 0 6 18 10 40 10 39 0 40 1 40 35 l0 35 -55 0 -55
0 0 -50 c0 -49 -1 -50 -30 -50 -29 0 -30 1 -30 50 l0 50 -55 0 -55 0 0 -35 c0
-34 1 -35 40 -35 22 0 40 -4 40 -10 0 -12 -87 -14 -94 -2 -2 4 -8 47 -12 95
l-7 87 173 0 173 0 -6 -67z"/>
<path d="M465 878 c-81 -90 -86 -105 -83 -261 3 -129 3 -132 28 -144 19 -10
178 -13 708 -13 685 0 712 1 734 34 11 16 10 235 -1 274 -6 18 -33 64 -61 103
l-52 69 -608 0 -608 0 -57 -62z"/>
</g>
</svg>
